# xmcd
#
# Track frame offsets:
#	150
#	10715
#	22214
#	34015
#	45419
#	58520
#	70318
#	80746
#	91080
#	101736
#	111342
#	124167
#	134538
#	147246
#	156660
#	167976
#	177830
#	188559
#	199705
#	210577
#	222062
#	233418
#	246642
#	258565
#	269022
#	280031
#
# Disc length: 3885 seconds
#
# Revision: 0
# Processed by: cddbd v1.5.2PL0 Copyright (c) Steve Scherf et al.
# Submitted via: dBpowerAMP V4.0
#
DISCID=830f2b1a
DTITLE=Patsy Cline - Walking After Midnight 
DYEAR=2008
DGENRE=Country
TTITLE0=Lovesick Blues
TTITLE1=Crazy Dreams
TTITLE2=Let the Teardrops Fall
TTITLE3=Lonely Street
TTITLE4=If I Could See The World
TTITLE5=Never No More
TTITLE6=Pick Me Up
TTITLE7=How Can I Face Tomorrow
TTITLE8=Gotta A Lot Of Rhythm In My Soul
TTITLE9=I´m Moving Along
TTITLE10=Yes I Understand
TTITLE11=Walking Dream
TTITLE12=Just A Closer Walk With Thee
TTITLE13=Love Love Love Me Honey
TTITLE14=Cry Not For Me
TTITLE15=I´m Blue Again
TTITLE16=I Can See An Angel
TTITLE17=Stop The World
TTITLE18=I Cried All The Way To The Altar
TTITLE19=The Heart You Break May Be Your Own
TTITLE20=Dear God
TTITLE21=Life´s Railroad To Heaven
TTITLE22=If I Could Stay Asleep
TTITLE23=He´ll Do For You
TTITLE24=There He Goes
TTITLE25=Just Out Of Reach
EXTD=hib
EXTT0=
EXTT1=
EXTT2=
EXTT3=
EXTT4=
EXTT5=
EXTT6=
EXTT7=
EXTT8=
EXTT9=
EXTT10=
EXTT11=
EXTT12=
EXTT13=
EXTT14=
EXTT15=
EXTT16=
EXTT17=
EXTT18=
EXTT19=
EXTT20=
EXTT21=
EXTT22=
EXTT23=
EXTT24=
EXTT25=
PLAYORDER=
